<?xml version="1.0" encoding="UTF-8" standalone="no"?>
<!-- Generated by Microsoft Visio 11.0, SVG Export, v1.0 Acorn.svg Page-1 -->

<svg
   xmlns:v="http://schemas.microsoft.com/visio/2003/SVGExtensions/"
   xmlns:dc="http://purl.org/dc/elements/1.1/"
   xmlns:cc="http://creativecommons.org/ns#"
   xmlns:rdf="http://www.w3.org/1999/02/22-rdf-syntax-ns#"
   xmlns:svg="http://www.w3.org/2000/svg"
   xmlns="http://www.w3.org/2000/svg"
   xmlns:sodipodi="http://sodipodi.sourceforge.net/DTD/sodipodi-0.dtd"
   xmlns:inkscape="http://www.inkscape.org/namespaces/inkscape"
   width="1.96008in"
   height="2.685in"
   viewBox="0 0 141.126 193.32"
   xml:space="preserve"
   color-interpolation-filters="sRGB"
   class="st3"
   id="svg2"
   version="1.1"
   inkscape:version="0.48.2 r9819"
   sodipodi:docname="Acorn.svg"><title
   id="title3187">Acorn</title><metadata
   id="metadata210"><rdf:RDF><cc:Work
       rdf:about=""><dc:format>image/svg+xml</dc:format><dc:type
         rdf:resource="http://purl.org/dc/dcmitype/StillImage" /><dc:title>Acorn</dc:title><dc:date>06/01/2013</dc:date><dc:creator><cc:Agent><dc:title>Christie L. Ward</dc:title></cc:Agent></dc:creator><dc:rights><cc:Agent><dc:title>Creative Commons Attribution-ShareAlike 3.0 Unported (CC BY-SA 3.0) license (http://creativecommons.org/licenses/by-sa/3.0/). No attribution required for heraldic or artistic use by members of the Society for Creative Anachronism, Inc.</dc:title></cc:Agent></dc:rights><dc:source>Microsoft Visio 2010</dc:source><cc:license
         rdf:resource="http://creativecommons.org/licenses/by-sa/3.0/" /></cc:Work><cc:License
       rdf:about="http://creativecommons.org/licenses/by-sa/3.0/"><cc:permits
         rdf:resource="http://creativecommons.org/ns#Reproduction" /><cc:permits
         rdf:resource="http://creativecommons.org/ns#Distribution" /><cc:requires
         rdf:resource="http://creativecommons.org/ns#Notice" /><cc:requires
         rdf:resource="http://creativecommons.org/ns#Attribution" /><cc:permits
         rdf:resource="http://creativecommons.org/ns#DerivativeWorks" /><cc:requires
         rdf:resource="http://creativecommons.org/ns#ShareAlike" /></cc:License></rdf:RDF></metadata><defs
   id="defs208" /><sodipodi:namedview
   pagecolor="#ffffff"
   bordercolor="#666666"
   borderopacity="1"
   objecttolerance="10"
   gridtolerance="10"
   guidetolerance="10"
   inkscape:pageopacity="0"
   inkscape:pageshadow="2"
   inkscape:window-width="740"
   inkscape:window-height="480"
   id="namedview206"
   showgrid="false"
   inkscape:zoom="0.9766191"
   inkscape:cx="88.203598"
   inkscape:cy="120.825"
   inkscape:window-x="0"
   inkscape:window-y="0"
   inkscape:window-maximized="0"
   inkscape:current-layer="svg2" />
	
	<v:documentProperties
   v:langID="1033"
   v:viewMarkup="false" />

	<style
   type="text/css"
   id="style6">
	
		.st1 {fill:#ff0000;stroke:#000000;stroke-linecap:round;stroke-linejoin:round;stroke-width:2.16}
		.st2 {fill:#ff0000;stroke:#000000;stroke-linecap:round;stroke-linejoin:round;stroke-width:1.2}
		.st3 {fill:none;fill-rule:evenodd;font-size:12px;overflow:visible;stroke-linecap:square;stroke-miterlimit:3}
	
	</style>

	<g
   v:mID="0"
   v:index="1"
   v:groupContext="foregroundPage"
   id="g8">
		<title
   id="title10">Page-1</title>
		<v:pageProperties
   v:drawingScale="1"
   v:pageScale="1"
   v:drawingUnits="19"
   v:shadowOffsetX="9"
   v:shadowOffsetY="-9" />
		<g
   id="group2-1"
   transform="translate(2.16,-2.16)"
   v:mID="2"
   v:groupContext="group">
			<title
   id="title13">Acorn</title>
			<g
   id="shape3-2"
   v:mID="3"
   v:groupContext="shape"
   transform="translate(58.2216,-152.474)">
				<title
   id="title16">Sheet.3</title>
				<path
   d="M3.53 192.43 A33.8877 29.9312 178.98 0 1 11.28 156.79 A77.9601 68.0905 0 0 1 16.97 160.96 A31.6684 27.6593         -180 0 0 13.12 192.99 A17.8715 15.609 0 0 1 3.53 192.43 Z"
   class="st1"
   id="path18" />
			</g>
			<g
   id="group4-4"
   v:mID="4"
   v:groupContext="group">
				<title
   id="title21">Sheet.4</title>
				<g
   id="shape5-5"
   v:mID="5"
   v:groupContext="shape"
   transform="translate(10.8198,2.84217E-014)">
					<title
   id="title24">Sheet.5</title>
					<path
   d="M57.5 193.26 L57.54 193.32 L57.54 193.2 A20.7312 18.1067 0 0 1 72.87 184.35 A65.7197 57.3997 -180 0          0 98.17 165.13 A185.106 161.672 -180 0 0 114.68 88.25 L57.54 88.25 L57.46 88.25 L0.32 88.25 A185.106          161.672 -180 0 0 16.83 165.13 A65.7197 57.3997 -180 0 0 42.13 184.35 A20.7312 18.1067 0 0 1 57.46          193.2 L57.46 193.32 L57.5 193.26 Z"
   class="st1"
   id="path26" />
				</g>
				<g
   id="shape6-7"
   v:mID="6"
   v:groupContext="shape"
   transform="translate(0,-101.387)">
					<title
   id="title29">Sheet.6</title>
					<path
   d="M68.4 193.32 L122.11 193.32 A16.679 14.8236 -180 0 0 136.7 177.94 A35.1827 31.2691 -180 0 0 112.74 145.91          L68.4 135.34 L24.07 145.91 A35.1827 31.2691 -180 0 0 0.1 177.94 A16.679 14.8236 -180 0 0 14.7 193.32          L68.4 193.32 Z"
   class="st1"
   id="path31" />
				</g>
				<g
   id="group7-9"
   transform="translate(0,-101.547)"
   v:mID="7"
   v:groupContext="group">
					<title
   id="title34">Sheet.7</title>
					<g
   id="shape8-10"
   v:mID="8"
   v:groupContext="shape"
   transform="translate(67.8052,-48.7336)">
						<title
   id="title37">Sheet.8</title>
						<path
   d="M0.04 193.32 L0.06 193.23 L0 193.19 L0.04 193.32 Z"
   class="st2"
   id="path39" />
					</g>
					<g
   id="shape9-12"
   v:mID="9"
   v:groupContext="shape"
   transform="translate(87.3324,-48.7336)">
						<title
   id="title42">Sheet.9</title>
						<path
   d="M0.04 193.32 L0.06 193.23 L0 193.19 L0.04 193.32 Z"
   class="st2"
   id="path44" />
					</g>
					<g
   id="shape10-14"
   v:mID="10"
   v:groupContext="shape"
   transform="translate(60.6197,-49.0259)">
						<title
   id="title47">Sheet.10</title>
						<path
   d="M0 186.34 A24.6915 20.1126 -180 0 0 7.19 193.32 A24.6915 20.1126 0 0 1 7.14 193.15 A24.6915 20.1126           -180 0 0 14.2 186.1 L7.6 184.52 L0 186.34 Z"
   class="st2"
   id="path49" />
					</g>
					<g
   id="shape11-16"
   v:mID="11"
   v:groupContext="shape"
   transform="translate(80.9802,-49.0259)">
						<title
   id="title52">Sheet.11</title>
						<path
   d="M0 187.57 A24.6915 20.1126 -180 0 0 6.35 193.32 A24.6915 20.1126 0 0 1 6.31 193.15 A24.6915 20.1126           -180 0 0 10.27 190.02 L0 187.57 Z"
   class="st2"
   id="path54" />
					</g>
					<g
   id="shape12-18"
   v:mID="12"
   v:groupContext="shape"
   transform="translate(106.984,-36.6788)">
						<title
   id="title57">Sheet.12</title>
						<path
   d="M0 181.58 A24.6915 20.1126 -180 0 0 9.61 193.24 L9.61 193.32 L9.67 193.28 L9.74 193.32 L9.74 193.24           A24.6915 20.1126 -180 0 0 12.12 191.66 A24.6915 20.1126 -180 0 0 15.82 187.73 A35.1827 31.2691           -180 0 0 5.57 182.91 L0 181.58 Z"
   class="st2"
   id="path59" />
					</g>
					<g
   id="shape13-20"
   v:mID="13"
   v:groupContext="shape"
   transform="translate(119.103,-38.3387)">
						<title
   id="title62">Sheet.13</title>
						<path
   d="M3.7 189.39 A24.6915 20.1126 0 0 1 0 193.32 A24.6915 20.1126 -180 0 0 3.91 189.54 A35.1827 31.2691           -180 0 0 3.7 189.39 Z"
   class="st2"
   id="path64" />
					</g>
					<g
   id="shape14-22"
   v:mID="14"
   v:groupContext="shape"
   transform="translate(44.4068,-49.1739)">
						<title
   id="title67">Sheet.14</title>
						<path
   d="M0 190.35 A24.6915 20.1126 -180 0 0 3.81 193.32 A25.0639 20.416 -180 0 0 9.65 188.05 L0 190.35 Z"
   class="st2"
   id="path69" />
					</g>
					<g
   id="shape15-24"
   v:mID="15"
   v:groupContext="shape"
   transform="translate(19.9266,-24.1856) scale(-1,1)">
						<title
   id="title72">Sheet.15</title>
						<path
   d="M6.39 175.38 A24.6915 20.1126 0 0 1 2.48 179.17 A24.6915 20.1126 0 0 1 0 180.96 A24.6915 20.1126           -180 0 0 9.78 193.24 L9.78 193.32 L9.84 193.28 L9.91 193.32 L9.91 193.24 A24.6915 20.1126 -180           0 0 16.81 187.07 A35.1827 31.2691 -180 0 0 6.39 175.38 Z"
   class="st2"
   id="path74" />
					</g>
					<g
   id="shape16-26"
   v:mID="16"
   v:groupContext="shape"
   transform="translate(58.408,2.84217E-014)">
						<title
   id="title77">Sheet.16</title>
						<path
   d="M10.23 169.12 A8.37351 6.8207 0 0 0 9.84 169.19 A8.37351 6.8207 -180 0 0 9.08 169.07 A24.6915 20.1126           0 0 1 0 180.96 A24.6915 20.1126 -180 0 0 9.78 193.24 L9.78 193.32 L9.84 193.28 L9.91 193.32           L9.91 193.24 A24.6915 20.1126 -180 0 0 19.63 181.17 A24.6915 20.1126 0 0 1 10.23 169.12 Z"
   class="st2"
   id="path79" />
					</g>
					<g
   id="shape17-28"
   v:mID="17"
   v:groupContext="shape"
   transform="translate(77.9352,2.84217E-014)">
						<title
   id="title82">Sheet.17</title>
						<path
   d="M10.23 169.12 A8.37351 6.8207 0 0 0 9.84 169.19 A8.37351 6.8207 -180 0 0 9.08 169.07 A24.6915 20.1126           0 0 1 0 180.96 A24.6915 20.1126 -180 0 0 9.78 193.24 L9.78 193.32 L9.84 193.28 L9.91 193.32           L9.91 193.24 A24.6915 20.1126 -180 0 0 19.63 181.17 A24.6915 20.1126 0 0 1 10.23 169.12 Z"
   class="st2"
   id="path84" />
					</g>
					<g
   id="shape18-30"
   v:mID="18"
   v:groupContext="shape"
   transform="translate(97.4624,2.84217E-014)">
						<title
   id="title87">Sheet.18</title>
						<path
   d="M10.23 169.12 A8.37351 6.8207 0 0 0 9.84 169.19 A8.37351 6.8207 -180 0 0 9.08 169.07 A24.6915 20.1126           0 0 1 0 180.96 A24.6915 20.1126 -180 0 0 9.78 193.24 L9.78 193.32 L9.84 193.28 L9.91 193.32           L9.91 193.24 A24.6915 20.1126 -180 0 0 19.63 181.17 A24.6915 20.1126 0 0 1 10.23 169.12 Z"
   class="st2"
   id="path89" />
					</g>
					<g
   id="shape19-32"
   v:mID="19"
   v:groupContext="shape"
   transform="translate(19.5272,2.84217E-014)">
						<title
   id="title92">Sheet.19</title>
						<path
   d="M10.23 169.12 A8.37351 6.8207 0 0 0 9.84 169.19 A8.37351 6.8207 -180 0 0 9.08 169.07 A24.6915 20.1126           0 0 1 0 180.96 A24.6915 20.1126 -180 0 0 9.78 193.24 L9.78 193.32 L9.84 193.28 L9.91 193.32           L9.91 193.24 A24.6915 20.1126 -180 0 0 19.63 181.17 A24.6915 20.1126 0 0 1 10.23 169.12 Z"
   class="st2"
   id="path94" />
					</g>
					<g
   id="shape20-34"
   v:mID="20"
   v:groupContext="shape"
   transform="translate(39.0544,2.84217E-014)">
						<title
   id="title97">Sheet.20</title>
						<path
   d="M10.23 169.12 A8.37351 6.8207 0 0 0 9.84 169.19 A8.37351 6.8207 -180 0 0 9.08 169.07 A24.6915 20.1126           0 0 1 0 180.96 A24.6915 20.1126 -180 0 0 9.78 193.24 L9.78 193.32 L9.84 193.28 L9.91 193.32           L9.91 193.24 A24.6915 20.1126 -180 0 0 19.63 181.17 A24.6915 20.1126 0 0 1 10.23 169.12 Z"
   class="st2"
   id="path99" />
					</g>
					<g
   id="shape21-36"
   v:mID="21"
   v:groupContext="shape"
   transform="translate(48.6885,-11.8525)">
						<title
   id="title102">Sheet.21</title>
						<path
   d="M10.23 169.12 A8.37351 6.8207 0 0 0 9.84 169.19 A8.37351 6.8207 -180 0 0 9.08 169.07 A24.6915 20.1126           0 0 1 0 180.96 A24.6915 20.1126 -180 0 0 9.78 193.24 L9.78 193.32 L9.84 193.28 L9.91 193.32           L9.91 193.24 A24.6915 20.1126 -180 0 0 19.63 181.17 A24.6915 20.1126 0 0 1 10.23 169.12 Z"
   class="st2"
   id="path104" />
					</g>
					<g
   id="shape22-38"
   v:mID="22"
   v:groupContext="shape"
   transform="translate(68.2157,-11.8525)">
						<title
   id="title107">Sheet.22</title>
						<path
   d="M10.23 169.12 A8.37351 6.8207 0 0 0 9.84 169.19 A8.37351 6.8207 -180 0 0 9.08 169.07 A24.6915 20.1126           0 0 1 0 180.96 A24.6915 20.1126 -180 0 0 9.78 193.24 L9.78 193.32 L9.84 193.28 L9.91 193.32           L9.91 193.24 A24.6915 20.1126 -180 0 0 19.63 181.17 A24.6915 20.1126 0 0 1 10.23 169.12 Z"
   class="st2"
   id="path109" />
					</g>
					<g
   id="shape23-40"
   v:mID="23"
   v:groupContext="shape"
   transform="translate(87.7429,-11.8525)">
						<title
   id="title112">Sheet.23</title>
						<path
   d="M10.23 169.12 A8.37351 6.8207 0 0 0 9.84 169.19 A8.37351 6.8207 -180 0 0 9.08 169.07 A24.6915 20.1126           0 0 1 0 180.96 A24.6915 20.1126 -180 0 0 9.78 193.24 L9.78 193.32 L9.84 193.28 L9.91 193.32           L9.91 193.24 A24.6915 20.1126 -180 0 0 19.63 181.17 A24.6915 20.1126 0 0 1 10.23 169.12 Z"
   class="st2"
   id="path114" />
					</g>
					<g
   id="shape24-42"
   v:mID="24"
   v:groupContext="shape"
   transform="translate(107.27,-11.8525)">
						<title
   id="title117">Sheet.24</title>
						<path
   d="M10.23 169.12 A8.37351 6.8207 0 0 0 9.84 169.19 A8.37351 6.8207 -180 0 0 9.08 169.07 A24.6915 20.1126           0 0 1 0 180.96 A24.6915 20.1126 -180 0 0 9.78 193.24 L9.78 193.32 L9.84 193.28 L9.91 193.32           L9.91 193.24 A24.6915 20.1126 -180 0 0 19.63 181.17 A24.6915 20.1126 0 0 1 10.23 169.12 Z"
   class="st2"
   id="path119" />
					</g>
					<g
   id="shape25-44"
   v:mID="25"
   v:groupContext="shape"
   transform="translate(9.80776,-11.8525)">
						<title
   id="title122">Sheet.25</title>
						<path
   d="M10.23 169.12 A8.37351 6.8207 0 0 0 9.84 169.19 A8.37351 6.8207 -180 0 0 9.08 169.07 A24.6915 20.1126           0 0 1 0 180.96 A24.6915 20.1126 -180 0 0 9.78 193.24 L9.78 193.32 L9.84 193.28 L9.91 193.32           L9.91 193.24 A24.6915 20.1126 -180 0 0 19.63 181.17 A24.6915 20.1126 0 0 1 10.23 169.12 Z"
   class="st2"
   id="path124" />
					</g>
					<g
   id="shape26-46"
   v:mID="26"
   v:groupContext="shape"
   transform="translate(29.335,-11.8525)">
						<title
   id="title127">Sheet.26</title>
						<path
   d="M10.23 169.12 A8.37351 6.8207 0 0 0 9.84 169.19 A8.37351 6.8207 -180 0 0 9.08 169.07 A24.6915 20.1126           0 0 1 0 180.96 A24.6915 20.1126 -180 0 0 9.78 193.24 L9.78 193.32 L9.84 193.28 L9.91 193.32           L9.91 193.24 A24.6915 20.1126 -180 0 0 19.63 181.17 A24.6915 20.1126 0 0 1 10.23 169.12 Z"
   class="st2"
   id="path129" />
					</g>
					<g
   id="shape27-48"
   v:mID="27"
   v:groupContext="shape"
   transform="translate(58.2246,-24.3458)">
						<title
   id="title132">Sheet.27</title>
						<path
   d="M10.23 169.12 A8.37351 6.8207 0 0 0 9.84 169.19 A8.37351 6.8207 -180 0 0 9.08 169.07 A24.6915 20.1126           0 0 1 0 180.96 A24.6915 20.1126 -180 0 0 9.78 193.24 L9.78 193.32 L9.84 193.28 L9.91 193.32           L9.91 193.24 A24.6915 20.1126 -180 0 0 19.63 181.17 A24.6915 20.1126 0 0 1 10.23 169.12 Z"
   class="st2"
   id="path134" />
					</g>
					<g
   id="shape28-50"
   v:mID="28"
   v:groupContext="shape"
   transform="translate(77.7518,-24.3458)">
						<title
   id="title137">Sheet.28</title>
						<path
   d="M10.23 169.12 A8.37351 6.8207 0 0 0 9.84 169.19 A8.37351 6.8207 -180 0 0 9.08 169.07 A24.6915 20.1126           0 0 1 0 180.96 A24.6915 20.1126 -180 0 0 9.78 193.24 L9.78 193.32 L9.84 193.28 L9.91 193.32           L9.91 193.24 A24.6915 20.1126 -180 0 0 19.63 181.17 A24.6915 20.1126 0 0 1 10.23 169.12 Z"
   class="st2"
   id="path139" />
					</g>
					<g
   id="shape29-52"
   v:mID="29"
   v:groupContext="shape"
   transform="translate(97.279,-24.3458)">
						<title
   id="title142">Sheet.29</title>
						<path
   d="M10.23 169.12 A8.37351 6.8207 0 0 0 9.84 169.19 A8.37351 6.8207 -180 0 0 9.08 169.07 A24.6915 20.1126           0 0 1 0 180.96 A24.6915 20.1126 -180 0 0 9.78 193.24 L9.78 193.32 L9.84 193.28 L9.91 193.32           L9.91 193.24 A24.6915 20.1126 -180 0 0 19.63 181.17 A24.6915 20.1126 0 0 1 10.23 169.12 Z"
   class="st2"
   id="path144" />
					</g>
					<g
   id="shape30-54"
   v:mID="30"
   v:groupContext="shape"
   transform="translate(19.3438,-24.3458)">
						<title
   id="title147">Sheet.30</title>
						<path
   d="M10.23 169.51 A8.37351 6.71328 0 0 0 9.84 169.57 A8.37351 6.71328 -180 0 0 9.08 169.45 A24.6915           19.7958 0 0 1 -0 181.16 A24.6915 19.7958 -180 0 0 9.78 193.24 L9.78 193.32 L9.84 193.28 L9.91           193.32 L9.91 193.24 A24.6915 19.7958 -180 0 0 19.63 181.36 A24.6915 19.7958 0 0 1 10.23 169.51           Z"
   class="st2"
   id="path149" />
					</g>
					<g
   id="shape31-56"
   v:mID="31"
   v:groupContext="shape"
   transform="translate(38.871,-24.3458)">
						<title
   id="title152">Sheet.31</title>
						<path
   d="M10.23 169.12 A8.37351 6.8207 0 0 0 9.84 169.19 A8.37351 6.8207 -180 0 0 9.08 169.07 A24.6915 20.1126           0 0 1 0 180.96 A24.6915 20.1126 -180 0 0 9.78 193.24 L9.78 193.32 L9.84 193.28 L9.91 193.32           L9.91 193.24 A24.6915 20.1126 -180 0 0 19.63 181.17 A24.6915 20.1126 0 0 1 10.23 169.12 Z"
   class="st2"
   id="path154" />
					</g>
					<g
   id="shape32-58"
   v:mID="32"
   v:groupContext="shape"
   transform="translate(-9.99201E-015,-12.5142)">
						<title
   id="title157">Sheet.32</title>
						<path
   d="M0.24 193.32 A24.6915 20.1126 -180 0 0 9.08 181.59 A8.37351 6.8207 0 0 1 9.65 181.67 A24.6915 20.1126           0 0 1 5.78 178.65 A24.6915 20.1126 0 0 1 2.99 175.64 A35.1827 31.2691 -180 0 0 0.1 190.62 A16.679           14.8236 -180 0 0 0.24 193.32 Z"
   class="st2"
   id="path159" />
					</g>
					<g
   id="shape33-60"
   v:mID="33"
   v:groupContext="shape"
   transform="translate(13.2357,-36.839)">
						<title
   id="title162">Sheet.33</title>
						<path
   d="M0 188.14 A24.6915 20.1126 -180 0 0 6.08 193.24 L6.08 193.32 L6.14 193.28 L6.21 193.32 L6.21 193.24           A24.6915 20.1126 -180 0 0 15.77 181.73 L10.83 182.91 A35.1827 31.2691 -180 0 0 0 188.14 Z"
   class="st2"
   id="path164" />
					</g>
					<g
   id="shape34-62"
   v:mID="34"
   v:groupContext="shape"
   transform="translate(0.376062,-0.677164)">
						<title
   id="title167">Sheet.34</title>
						<path
   d="M1.71 186.48 A16.679 14.8236 -180 0 0 10.51 193.32 A24.6915 20.1126 -180 0 0 19.26 181.85 A24.6915           20.1126 0 0 1 9.85 169.8 A8.37351 6.8207 -180 0 0 9.47 169.87 A8.37351 6.8207 -180 0 0 9.28           169.83 A26.6984 21.7527 -1.01 0 0 8.99 169.67 A24.0853 19.6201 179.48 0 1 0 181.59 A17.9744           15.9743 -0.28 0 0 1.71 186.48 Z"
   class="st2"
   id="path169" />
					</g>
					<g
   id="shape35-64"
   v:mID="35"
   v:groupContext="shape"
   transform="translate(29.2593,-36.839)">
						<title
   id="title172">Sheet.35</title>
						<path
   d="M0 181.67 A24.6915 20.1126 -180 0 0 9.58 193.24 L9.58 193.32 L9.65 193.28 L9.71 193.32 L9.71 193.24           A24.6915 20.1126 -180 0 0 19.32 181.57 A24.6915 20.1126 0 0 1 19.17 181 L19.16 180.96 A21.858           17.8045 0 0 1 15.33 178.02 L0 181.67 Z"
   class="st2"
   id="path174" />
					</g>
					<g
   id="shape36-66"
   v:mID="36"
   v:groupContext="shape"
   transform="translate(48.4168,-36.839)">
						<title
   id="title177">Sheet.36</title>
						<path
   d="M5.82 175.71 A24.6915 20.1126 0 0 1 0 180.96 a0.96996 0.790087 -180 0 0 0.279166 0.209934 A24.6915           20.1126 0 0 1 0.17 181.57 A24.6915 20.1126 -180 0 0 9.78 193.24 L9.78 193.32 L9.84 193.28 L9.91           193.32 L9.91 193.24 A24.6915 20.1126 -180 0 0 19.61 181.27 L19.57 181.13 A24.6915 20.1126 0           0 1 12.39 174.15 L5.82 175.71 Z"
   class="st2"
   id="path179" />
					</g>
					<g
   id="shape37-68"
   v:mID="37"
   v:groupContext="shape"
   transform="translate(67.944,-36.839)">
						<title
   id="title182">Sheet.37</title>
						<path
   d="M7.05 173.91 A24.6915 20.1126 0 0 1 0 180.96 A24.6915 20.1126 -180 0 0 0.04 181.13 L0.11 181.17           L0.08 181.27 A24.6915 20.1126 -180 0 0 9.78 193.24 L9.78 193.32 L9.84 193.28 L9.91 193.32 L9.91           193.24 A24.6915 20.1126 -180 0 0 19.61 181.27 L19.57 181.13 A24.6915 20.1126 0 0 1 13.22 175.38           L7.05 173.91 Z"
   class="st2"
   id="path184" />
					</g>
					<g
   id="shape38-70"
   v:mID="38"
   v:groupContext="shape"
   transform="translate(87.4712,-36.839)">
						<title
   id="title187">Sheet.38</title>
						<path
   d="M3.96 177.83 A24.6915 20.1126 0 0 1 0 180.96 A24.6915 20.1126 -180 0 0 0.04 181.13 L0.11 181.17           L0.08 181.27 A24.6915 20.1126 -180 0 0 9.78 193.24 L9.78 193.32 L9.84 193.28 L9.91 193.32 L9.91           193.24 A24.6915 20.1126 -180 0 0 19.53 181.54 L3.96 177.83 Z"
   class="st2"
   id="path189" />
					</g>
					<g
   id="shape39-72"
   v:mID="39"
   v:groupContext="shape"
   transform="translate(116.806,-24.3458)">
						<title
   id="title192">Sheet.39</title>
						<path
   d="M6.39 175.38 A24.6915 20.1126 0 0 1 2.48 179.17 A24.6915 20.1126 0 0 1 0 180.96 A24.6915 20.1126           -180 0 0 9.78 193.24 L9.78 193.32 L9.84 193.28 L9.91 193.32 L9.91 193.24 A24.6915 20.1126 -180           0 0 16.81 187.07 A35.1827 31.2691 -180 0 0 6.39 175.38 Z"
   class="st2"
   id="path194" />
					</g>
					<g
   id="shape40-74"
   v:mID="40"
   v:groupContext="shape"
   transform="translate(127.096,-12.2161)">
						<title
   id="title197">Sheet.40</title>
						<path
   d="M6.53 174.96 A24.6915 20.1126 0 0 1 -0 181.36 A8.37351 6.8207 0 0 1 0.12 181.34 A24.6915 20.1126           -180 0 0 9.42 193.32 A16.679 14.8236 -180 0 0 9.61 190.32 A35.1827 31.2691 -180 0 0 6.53 174.96           Z"
   class="st2"
   id="path199" />
					</g>
					<g
   id="shape41-76"
   v:mID="41"
   v:groupContext="shape"
   transform="translate(116.99,-0.648865)">
						<title
   id="title202">Sheet.41</title>
						<path
   d="M19.46 182.07 A24.6915 20.1126 0 0 1 9.91 169.92 A24.6915 20.1126 -180 0 0 10.11 169.79 A8.37351           6.8207 -180 0 0 9.84 169.84 A8.37351 6.8207 -180 0 0 9.08 169.72 A24.6915 20.1126 0 0 1 0 181.61           A24.6915 20.1126 -180 0 0 8.85 193.32 A16.679 14.8236 -180 0 0 16.06 188.7 A24.6915 20.1126           -180 0 0 19.07 183.56 A16.679 14.8236 -180 0 0 19.46 182.07 Z"
   class="st2"
   id="path204" />
					</g>
				</g>
			</g>
		</g>
	</g>
</svg>