<?xml version="1.0" encoding="UTF-8" standalone="no"?>
<svg xmlns="http://www.w3.org/2000/svg" xmlns:xlink="http://www.w3.org/1999/xlink" width="388.64563" height="407.0705" version="1.0">
  <defs>
    <radialGradient xlink:href="#a" id="d" cx="449.12918" cy="345.23175" r="184.96443" fx="449.12918" fy="345.23175" gradientTransform="matrix(1.06455 -.00446 .00419 1.00001 -30.43703 1.997764)" gradientUnits="userSpaceOnUse"/>
    <radialGradient xlink:href="#b" id="c" cx="492.85715" cy="379.50504" r="184.96443" fx="492.85715" fy="379.50504" gradientTransform="matrix(.94496 .0415 -.0434 .98823 43.59757 -15.99113)" gradientUnits="userSpaceOnUse"/>
    <linearGradient id="b">
      <stop offset="0"/>
      <stop offset=".5"/>
      <stop offset=".75"/>
      <stop offset=".875" stop-opacity=".72164947"/>
      <stop offset=".9375" stop-opacity=".50515461"/>
      <stop offset=".96875" stop-opacity=".3298969"/>
      <stop offset="1" stop-opacity="0"/>
    </linearGradient>
    <linearGradient id="a">
      <stop offset="0" stop-color="#fa4"/>
      <stop offset=".5" stop-color="#c3791f"/>
      <stop offset="1" stop-color="#935000"/>
    </linearGradient>
  </defs>
  <g transform="translate(-312.8927 -197.5406)">
    <path fill="url(#c)" d="M675.82158 379.50504a182.96443 182.96443 0 1 1-365.92886 0 182.96443 182.96443 0 1 1 365.92886 0z" transform="translate(25.71677 42.14162)"/>
    <path fill="url(#d)" d="M675.82158 379.50504a182.96443 182.96443 0 1 1-365.92886 0 182.96443 182.96443 0 1 1 365.92886 0z" transform="translate(3 1)"/>
    <path d="M448.21432 203.83901c2.14881.79249 5.53742 2.10894 8.12943 3.87974 2.59201 1.7708 4.36352 3.88035 4.5 6.28125.31275 5.5018 1.88681 10.22855-4.53125 20.21875-6.41806 9.9902-21.15116 24.85762-53.5625 48.21875-60.85802 43.86465-75.05244 136.67747-77.92226 163.0186l3.11066 7.76443s8.12497-117.77799 77.15535-167.53303c32.59652-23.49461 47.6269-38.51671 54.5625-49.3125 6.9356-10.79579 5.46567-17.73144 5.1875-22.625-.23733-4.17521-3.15026-7.19482-6.25-9.3125-1.27875-.87362-2.64731-1.56748-3.94041-2.2007l-6.43902 1.60221zm60.80096-5.80964c-9.4817 11.84345-31.09806 47.47973-43.85903 138.72063-15.75997 112.68374-14.44773 210.08082-14.24027 221.09038l4.02152.90962s-2.50072-102.14805 14.1875-221.46875c13.62255-97.40117 37.30869-130.42338 44.77548-138.81947l-4.8852-.43241zM556.6875 211.625c-9.6437.1845-19.67047 2.89044-26.71875 11.28125-9.22401 10.98096-9.05223 22.85659-5.46875 33.28125 3.58348 10.42466 10.38069 19.73781 14.46875 26.6875 2.23237 3.79503 8.48939 12.70279 16.46875 26.3125s17.58823 31.78919 26.28125 53.59375c17.38604 43.60913 31.00697 101.68912 20.21875 166.8125l4.628-3.51203c9.69511-64.34466-3.92617-121.6534-21.128-164.80047-8.78621-22.0383-18.50754-40.38635-26.5625-54.125-8.05496-13.73865-14.52269-23.00421-16.46875-26.3125-4.26879-7.25695-10.81408-16.33698-14.125-25.96875-3.31092-9.63177-3.57539-19.46382 4.75-29.375 8.15168-9.70438 21.17183-10.83557 32.53125-9.375 11.35942 1.46057 20.69903 5.39472 20.69903 5.39472l-17.76618-8.96087c-.85987-.14091-1.51333-.28839-2.4016-.4026-3.00098-.38586-6.19168-.59275-9.40625-.53125z" color="#000" overflow="visible" style="marker:none"/>
    <path d="M458.15625 224.96875c-33.82501 1.04719-58.95905 8.84224-76.65625 17.4375-5.44348 2.64382-10.13585 5.47638-14.2145 8.10882-4.56167 4.56958-9.79842 10.29075-16.723 18.89118 0 0 9.7376-12.25984 32.6875-23.40625s58.97471-21.02171 111.28125-15.625C599.18056 241.17215 643.20884 296.98475 675.71875 347l-2.34372-10.62645c-32.34374-48.04914-78.38395-99.67557-178.43753-109.99855-13.24744-1.3668-25.50625-1.75531-36.78125-1.40625z" color="#000" overflow="visible" style="marker:none"/>
  </g>
</svg>