<?xml version="1.0" encoding="UTF-8" standalone="no"?>
<!-- Created with Inkscape (http://www.inkscape.org/) -->

<svg
   xmlns:dc="http://purl.org/dc/elements/1.1/"
   xmlns:cc="http://creativecommons.org/ns#"
   xmlns:rdf="http://www.w3.org/1999/02/22-rdf-syntax-ns#"
   xmlns:svg="http://www.w3.org/2000/svg"
   xmlns="http://www.w3.org/2000/svg"
   xmlns:xlink="http://www.w3.org/1999/xlink"
   version="1.1"
   width="744.09448"
   height="1052.3622"
   id="svg3042">
  <defs
     id="defs3044">
    <linearGradient
       id="linearGradient3225">
      <stop
         id="stop3227"
         style="stop-color:#f7f7f6;stop-opacity:1"
         offset="0" />
      <stop
         id="stop3229"
         style="stop-color:#b7b8a8;stop-opacity:0.78227061"
         offset="1" />
    </linearGradient>
    <linearGradient
       id="linearGradient3193">
      <stop
         id="stop3195"
         style="stop-color:#f7f7f6;stop-opacity:1"
         offset="0" />
      <stop
         id="stop3197"
         style="stop-color:#b7b8a8;stop-opacity:1"
         offset="1" />
    </linearGradient>
    <linearGradient
       id="linearGradient3075">
      <stop
         id="stop3077"
         style="stop-color:#a23832;stop-opacity:1"
         offset="0" />
      <stop
         id="stop3079"
         style="stop-color:#b3714f;stop-opacity:1"
         offset="1" />
    </linearGradient>
    <linearGradient
       id="linearGradient3063">
      <stop
         id="stop3065"
         style="stop-color:#d89a98;stop-opacity:1"
         offset="0" />
      <stop
         id="stop3067"
         style="stop-color:#b05b5b;stop-opacity:1"
         offset="1" />
    </linearGradient>
    <linearGradient
       x1="1276.4486"
       y1="509.63513"
       x2="1535.5205"
       y2="519.09027"
       id="linearGradient3445"
       xlink:href="#linearGradient3193"
       gradientUnits="userSpaceOnUse" />
    <linearGradient
       x1="992.79346"
       y1="592.84064"
       x2="1212.1536"
       y2="940.79114"
       id="linearGradient3447"
       xlink:href="#linearGradient3193"
       gradientUnits="userSpaceOnUse" />
    <linearGradient
       x1="1255.6473"
       y1="536.10962"
       x2="979.55621"
       y2="373.48059"
       id="linearGradient3449"
       xlink:href="#linearGradient3225"
       gradientUnits="userSpaceOnUse" />
    <linearGradient
       x1="857.12195"
       y1="294.85892"
       x2="730.09143"
       y2="179.86284"
       id="linearGradient3451"
       xlink:href="#linearGradient3063"
       gradientUnits="userSpaceOnUse" />
    <linearGradient
       x1="706.02246"
       y1="219.30916"
       x2="846.42468"
       y2="319.59644"
       id="linearGradient3453"
       xlink:href="#linearGradient3075"
       gradientUnits="userSpaceOnUse" />
    <linearGradient
       x1="1276.4486"
       y1="509.63513"
       x2="1535.5205"
       y2="519.09027"
       id="linearGradient3482"
       xlink:href="#linearGradient3193"
       gradientUnits="userSpaceOnUse" />
    <linearGradient
       x1="992.79346"
       y1="592.84064"
       x2="1212.1536"
       y2="940.79114"
       id="linearGradient3484"
       xlink:href="#linearGradient3193"
       gradientUnits="userSpaceOnUse" />
    <linearGradient
       x1="1255.6473"
       y1="536.10962"
       x2="979.55621"
       y2="373.48059"
       id="linearGradient3486"
       xlink:href="#linearGradient3225"
       gradientUnits="userSpaceOnUse" />
    <linearGradient
       x1="857.12195"
       y1="294.85892"
       x2="730.09143"
       y2="179.86284"
       id="linearGradient3488"
       xlink:href="#linearGradient3063"
       gradientUnits="userSpaceOnUse" />
    <linearGradient
       x1="706.02246"
       y1="219.30916"
       x2="846.42468"
       y2="319.59644"
       id="linearGradient3490"
       xlink:href="#linearGradient3075"
       gradientUnits="userSpaceOnUse" />
    <linearGradient
       x1="1255.6473"
       y1="536.10962"
       x2="979.55621"
       y2="373.48059"
       id="linearGradient3503"
       xlink:href="#linearGradient3225"
       gradientUnits="userSpaceOnUse"
       gradientTransform="matrix(-0.48896674,0,0,0.48896674,962.52571,228.79732)" />
    <linearGradient
       x1="992.79346"
       y1="592.84064"
       x2="1212.1536"
       y2="940.79114"
       id="linearGradient3506"
       xlink:href="#linearGradient3193"
       gradientUnits="userSpaceOnUse"
       gradientTransform="matrix(-0.48896674,0,0,0.48896674,962.52571,228.79732)" />
    <linearGradient
       x1="1276.4486"
       y1="509.63513"
       x2="1535.5205"
       y2="519.09027"
       id="linearGradient3509"
       xlink:href="#linearGradient3193"
       gradientUnits="userSpaceOnUse"
       gradientTransform="matrix(-0.48896674,0,0,0.48896674,962.52571,228.79732)" />
    <linearGradient
       x1="857.12195"
       y1="294.85892"
       x2="730.09143"
       y2="179.86284"
       id="linearGradient3511"
       xlink:href="#linearGradient3063"
       gradientUnits="userSpaceOnUse" />
    <linearGradient
       x1="706.02246"
       y1="219.30916"
       x2="846.42468"
       y2="319.59644"
       id="linearGradient3513"
       xlink:href="#linearGradient3075"
       gradientUnits="userSpaceOnUse" />
    <linearGradient
       x1="1276.4486"
       y1="509.63513"
       x2="1535.5205"
       y2="519.09027"
       id="linearGradient3672"
       xlink:href="#linearGradient3193"
       gradientUnits="userSpaceOnUse"
       gradientTransform="matrix(-0.48896674,0,0,0.48896674,962.52571,228.79732)" />
    <linearGradient
       x1="992.79346"
       y1="592.84064"
       x2="1212.1536"
       y2="940.79114"
       id="linearGradient3674"
       xlink:href="#linearGradient3193"
       gradientUnits="userSpaceOnUse"
       gradientTransform="matrix(-0.48896674,0,0,0.48896674,962.52571,228.79732)" />
    <linearGradient
       x1="1255.6473"
       y1="536.10962"
       x2="979.55621"
       y2="373.48059"
       id="linearGradient3676"
       xlink:href="#linearGradient3225"
       gradientUnits="userSpaceOnUse"
       gradientTransform="matrix(-0.48896674,0,0,0.48896674,962.52571,228.79732)" />
    <linearGradient
       x1="857.12195"
       y1="294.85892"
       x2="730.09143"
       y2="179.86284"
       id="linearGradient3678"
       xlink:href="#linearGradient3063"
       gradientUnits="userSpaceOnUse" />
    <linearGradient
       x1="706.02246"
       y1="219.30916"
       x2="846.42468"
       y2="319.59644"
       id="linearGradient3680"
       xlink:href="#linearGradient3075"
       gradientUnits="userSpaceOnUse" />
  </defs>
  <metadata
     id="metadata3047">
    <rdf:RDF>
      <cc:Work
         rdf:about="">
        <dc:format>image/svg+xml</dc:format>
        <dc:type
           rdf:resource="http://purl.org/dc/dcmitype/StillImage" />
        <dc:title></dc:title>
      </cc:Work>
    </rdf:RDF>
  </metadata>
  <g
     id="layer1">
    <g
       transform="translate(-29.417602,5.348655)"
       id="g3650">
      <path
         d="m 250.96361,300.24953 c 0,0 6.53832,-15.36498 9.48053,-18.63412 2.94221,-3.26914 8.49975,-11.76891 15.03807,-14.71114 6.53827,-2.94223 12.74966,-6.53829 20.26865,-7.51903 7.51904,-0.98074 16.99956,-2.2884 19.6149,-1.30766 2.61529,0.98075 13.40346,6.8652 14.7111,7.84595 1.3077,0.98074 -6.21134,-1.63458 -6.21134,-1.63458 0,0 8.82668,8.17286 11.44197,11.44201 2.61533,3.26914 5.88447,6.53828 5.88447,6.53828 l -2.61529,-1.96149 5.88442,12.09583 -6.21134,-7.19211 5.55754,15.03806 -3.26913,-4.57681 3.59606,15.69189 -2.61534,-4.24988 c 0,0 3.26913,5.55754 2.61534,13.07657 -0.65385,7.51903 -5.44284,19.23262 -6.86524,29.09537 -1.13714,7.88527 -1.58284,16.05672 -1.30765,23.86475 0.479,13.59095 4.04307,29.59277 9.48053,38.9028 5.55755,9.1536 13.73038,19.28794 13.73038,19.28794 0,0 8.86678,13.26067 14.38423,18.96103 5.17249,5.34398 11.37131,9.60215 17.32649,14.05731 6.46223,4.83451 19.94177,13.73041 19.94177,13.73041 0,0 13.10588,6.12226 19.88564,9.32186 12.12305,5.72125 25.68577,5.81796 38.24899,10.57344 12.63496,4.78263 24.99203,12.51045 37.32433,18.02676 9.88398,4.42115 19.2966,9.89449 28.44154,15.69188 11.46943,7.271 33.01835,23.86474 33.01835,23.86474 l 11.11508,12.74966 4.24989,18.3072 8.17286,9.80743 17.98028,16.67263 c 0,0 19.41075,11.74091 27.78772,19.28794 7.69252,6.93041 20.26868,23.53783 20.26868,23.53783 l 1.96149,11.442 10.46126,20.26869 3.59605,13.07657 -11.44199,4.5768 5.23062,15.69192 0.98074,6.86519 -16.0188,0.6538 2.61532,8.17288 c 0,0 -30.07611,-15.03807 -31.38377,-16.34572 -1.30766,-1.30764 -31.05686,-17.32647 -31.05686,-17.32647 l -28.76846,-16.0188 -30.72994,-10.13434 c 0,0 1.96148,10.46126 0.32691,9.1536 -1.63457,-1.30766 -20.5956,-9.1536 -20.5956,-9.1536 l 1.63457,10.78817 -15.03806,-10.78817 c 0,0 3.59606,7.51903 1.30766,6.21137 -2.2884,-1.30766 -22.884,-10.78817 -22.884,-10.78817 l 7.19211,15.69188 -18.63411,-9.80742 0.65385,6.8652 -15.365,-6.8652 c 0,0 -20.40678,-4.27199 -30.40302,-7.19212 -9.19644,-2.68648 -27.13389,-9.48051 -27.13389,-9.48051 l -4.2499,23.86474 -11.44197,-3.59606 -10.78817,-32.69143 -6.2114,-25.1724 -21.24942,-24.84549 -4.2499,-13.07657 -1.63457,13.73041 -3.59605,-6.8652 1.30764,18.30719 -8.17283,-16.0188 2.61533,18.3072 -11.44202,-30.07611 -1.96149,25.1724 c 0,0 2.94222,-11.76891 -2.61533,-5.88446 -5.5575,5.88446 -5.5575,6.21138 -5.5575,6.21138 l -1.30769,-32.36452 -4.24986,9.1536 -0.32692,-11.442 -6.21139,15.03806 0.65384,-19.28795 -6.21139,9.48052 1.63457,-46.74875 -1.30765,4.90372 0,-22.884 -9.48052,23.21091 7.19211,-40.53737 8.49981,-44.78726 2.28836,-41.51812 -1.63457,-22.55709 -0.65379,-34.32599 1.63456,-19.94178 1.96149,-11.442 -1.96149,-3.92297 c 0,0 -7.51903,-0.32692 -8.82668,-0.32692 -1.30769,0 -14.05735,4.24989 -14.05735,4.24989 l -4.9037,-6.8652 12.42274,-10.78817 -15.69188,2.94223 -7.84596,-4.90371 z"
         id="path3085"
         style="fill:url(#linearGradient3672);fill-opacity:1;stroke:none" />
      <path
         d="m 250.96361,300.24953 c 0,0 6.53832,-15.36498 9.48053,-18.63412 2.94221,-3.26914 8.49975,-11.76891 15.03807,-14.71114 6.53827,-2.94223 12.74966,-6.53829 20.26865,-7.51903 7.51904,-0.98074 16.99956,-2.2884 19.6149,-1.30766 2.61529,0.98075 13.40346,6.8652 14.7111,7.84595 1.3077,0.98074 -6.21134,-1.63458 -6.21134,-1.63458 0,0 8.82668,8.17286 11.44197,11.44201 2.61533,3.26914 5.88447,6.53828 5.88447,6.53828 l -2.61529,-1.96149 5.88442,12.09583 -6.21134,-7.19211 5.55754,15.03806 -3.26913,-4.57681 3.59606,15.69189 -2.61534,-4.24988 c 0,0 3.26913,5.55754 2.61534,13.07657 -0.65385,7.51903 -5.44284,19.23262 -6.86524,29.09537 -1.13714,7.88527 -1.58284,16.05672 -1.30765,23.86475 0.479,13.59095 4.04307,29.59277 9.48053,38.9028 5.55755,9.1536 13.73038,19.28794 13.73038,19.28794 0,0 8.86678,13.26067 14.38423,18.96103 5.17249,5.34398 11.37131,9.60215 17.32649,14.05731 6.46223,4.83451 19.94177,13.73041 19.94177,13.73041 0,0 13.10588,6.12226 19.88564,9.32186 12.12305,5.72125 25.68577,5.81796 38.24899,10.57344 12.63496,4.78263 24.99203,12.51045 37.32433,18.02676 9.88398,4.42115 19.2966,9.89449 28.44154,15.69188 11.46943,7.271 33.01835,23.86474 33.01835,23.86474 l 11.11508,12.74966 4.24989,18.3072 8.17286,9.80743 17.98028,16.67263 c 0,0 19.41075,11.74091 27.78772,19.28794 7.69252,6.93041 20.26868,23.53783 20.26868,23.53783 l 1.96149,11.442 10.46126,20.26869 3.59605,13.07657 -11.44199,4.5768 5.23062,15.69192 0.98074,6.86519 -16.0188,0.6538 2.61532,8.17288 c 0,0 -30.07611,-15.03807 -31.38377,-16.34572 -1.30766,-1.30764 -31.05686,-17.32647 -31.05686,-17.32647 l -28.76846,-16.0188 -30.72994,-10.13434 c 0,0 1.96148,10.46126 0.32691,9.1536 -1.63457,-1.30766 -20.5956,-9.1536 -20.5956,-9.1536 l 1.63457,10.78817 -15.03806,-10.78817 c 0,0 3.59606,7.51903 1.30766,6.21137 -2.2884,-1.30766 -22.884,-10.78817 -22.884,-10.78817 l 7.19211,15.69188 -18.63411,-9.80742 0.65385,6.8652 -15.365,-6.8652 c 0,0 -20.40678,-4.27199 -30.40302,-7.19212 -9.19644,-2.68648 -27.13389,-9.48051 -27.13389,-9.48051 l -4.2499,23.86474 -11.44197,-3.59606 -10.78817,-32.69143 -6.2114,-25.1724 -21.24942,-24.84549 -4.2499,-13.07657 -1.63457,13.73041 -3.59605,-6.8652 1.30764,18.30719 -8.17283,-16.0188 2.61533,18.3072 -11.44202,-30.07611 -1.96149,25.1724 c 0,0 2.94222,-11.76891 -2.61533,-5.88446 -5.5575,5.88446 -5.5575,6.21138 -5.5575,6.21138 l -1.30769,-32.36452 -4.24986,9.1536 -0.32692,-11.442 -6.21139,15.03806 0.65384,-19.28795 -6.21139,9.48052 1.63457,-46.74875 -1.30765,4.90372 0,-22.884 -9.48052,23.21091 7.19211,-40.53737 8.49981,-44.78726 2.28836,-41.51812 -1.63457,-22.55709 -0.65379,-34.32599 1.63456,-19.94178 1.96149,-11.442 -1.96149,-3.92297 c 0,0 -7.51903,-0.32692 -8.82668,-0.32692 -1.30769,0 -14.05735,4.24989 -14.05735,4.24989 l -4.9037,-6.8652 12.42274,-10.78817 -15.69188,2.94223 -7.84596,-4.90371 z"
         id="path3203"
         style="opacity:0.84840004;fill:url(#linearGradient3674);fill-opacity:1;stroke:none" />
      <path
         d="m 250.96361,300.24953 c 0,0 6.53832,-15.36498 9.48053,-18.63412 2.94221,-3.26914 8.49975,-11.76891 15.03807,-14.71114 6.53827,-2.94223 11.33137,-6.53829 18.85035,-7.51903 7.51904,-0.98074 14.16874,-2.79902 21.0332,-1.30766 5.43086,1.1799 13.40346,6.8652 14.7111,7.84595 1.3077,0.98074 -6.21134,-1.63458 -6.21134,-1.63458 0.85471,0 11.5404,8.17286 11.44197,11.44201 -0.12601,4.18466 5.88447,6.53828 5.88447,6.53828 l -2.61529,-1.96149 5.88442,12.09583 -6.21134,-7.19211 5.55754,15.03806 -3.26913,-4.57681 3.59606,15.69189 -2.61534,-4.24988 c 0,0 3.26913,5.55754 2.61534,13.07657 -0.65385,7.51903 -5.44284,19.23262 -6.86524,29.09537 -1.13714,7.88527 -1.58284,16.05672 -1.30765,23.86475 0.479,13.59095 4.04307,29.59277 9.48053,38.9028 5.55755,9.1536 13.73038,19.28794 13.73038,19.28794 0,0 8.86678,13.26067 14.38423,18.96103 5.17249,5.34398 11.37131,9.60215 17.32649,14.05731 6.46223,4.83451 19.94177,13.73041 19.94177,13.73041 0,0 13.10588,6.12226 19.88564,9.32186 12.12305,5.72125 25.68577,5.81796 38.24899,10.57344 12.63496,4.78263 24.99203,12.51045 37.32433,18.02676 9.88398,4.42115 19.2966,9.89449 28.44154,15.69188 11.46943,7.271 33.01835,23.86474 33.01835,23.86474 l 11.11508,12.74966 4.24989,18.3072 8.17286,9.80743 17.98028,16.67263 c 0,0 19.41075,11.74091 27.78772,19.28794 7.69252,6.93041 20.26868,23.53783 20.26868,23.53783 l 1.96149,11.442 10.46126,20.26869 3.59605,13.07657 -11.44199,4.5768 5.23062,15.69192 0.98074,6.86519 -16.0188,0.6538 2.61532,8.17288 c 0,0 -30.07611,-15.03807 -31.38377,-16.34572 -1.30766,-1.30764 -31.05686,-17.32647 -31.05686,-17.32647 l -28.76846,-16.0188 -30.72994,-10.13434 c 0,0 1.96148,10.46126 0.32691,9.1536 -1.63457,-1.30766 -20.5956,-9.1536 -20.5956,-9.1536 l 1.63457,10.78817 -15.03806,-10.78817 c 0,0 3.59606,7.51903 1.30766,6.21137 -2.2884,-1.30766 -22.884,-10.78817 -22.884,-10.78817 l 7.19211,15.69188 -18.63411,-9.80742 0.65385,6.8652 -15.365,-6.8652 c 0,0 -20.40678,-4.27199 -30.40302,-7.19212 -9.19644,-2.68648 -27.13389,-9.48051 -27.13389,-9.48051 l -4.2499,23.86474 -11.44197,-3.59606 -10.78817,-32.69143 -6.2114,-25.1724 -21.24942,-24.84549 -4.2499,-13.07657 -1.63457,13.73041 -3.59605,-6.8652 1.30764,18.30719 -8.17283,-16.0188 2.61533,18.3072 -11.44202,-30.07611 -1.96149,25.1724 c 0,0 2.94222,-11.76891 -2.61533,-5.88446 -5.5575,5.88446 -5.5575,6.21138 -5.5575,6.21138 l -1.30769,-32.36452 -4.24986,9.1536 -0.32692,-11.442 -6.21139,15.03806 0.65384,-19.28795 -6.21139,9.48052 1.63457,-46.74875 -1.30765,4.90372 0,-22.884 -9.48052,23.21091 7.19211,-40.53737 8.49981,-44.78726 2.28836,-41.51812 -1.63457,-22.55709 -0.65379,-34.32599 1.63456,-19.94178 1.96149,-11.442 -1.96149,-3.92297 c 0,0 -7.51903,-0.32692 -8.82668,-0.32692 -1.30769,0 -14.05735,4.24989 -14.05735,4.24989 l -4.9037,-6.8652 12.42274,-10.78817 -15.69188,2.94223 -7.84596,-4.90371 z"
         id="path3221"
         style="opacity:0.6464;fill:url(#linearGradient3676);fill-opacity:1;stroke:none" />
      <g
         id="g3632">
        <path
           d="m 431.57571,668.24745 28.1066,96.01576 -3.1034,185.0501 c -21.2281,6.3247 -40.9541,11.8983 -57.1586,15.7112 0,0 39.3171,-0.2797 56.796,-8.0304 3.3742,-1.4962 8.5097,-7.085 8.5097,-7.085 l 12.9912,9.0925 -10.0381,-16.6437 2.0413,-180.10234 c 0,0 3.714,-7.34777 2.9531,-11.10016 -0.7527,-3.71224 -6.9683,-8.97601 -6.9683,-8.97601 l -16.0609,-68.25884 z"
           id="path3256"
           style="fill:#d40000;stroke:none" />
        <g
           transform="matrix(-0.48896674,0,0,0.48896674,606.57594,217.20785)"
           id="g3211">
          <path
             d="m 700.00522,163.14829 -7.3544,-0.66858 -7.3544,-9.36015 10.69731,-8.02298 -10.69731,0 c 0,0 -7.46391,-11.28411 -12.70305,-15.37739 -4.47735,-3.49811 -9.79055,-6.31965 -15.37739,-7.3544 -5.49584,-1.0179 -11.14722,1.83255 -16.71454,1.33717 -4.36129,-0.38807 -12.70306,-3.34291 -12.70306,-3.34291 l 10.02873,10.02873 c 0,0 0.64595,8.8627 3.34291,12.03447 2.06699,2.4309 8.69156,4.01149 8.69156,4.01149 l 10.02873,2.67433 c 0,0 9.20929,-0.56565 11.36589,2.67433 0.75114,1.12848 -0.66858,4.01149 -0.66858,4.01149 l 8.02298,-2.67433 0,4.68007 7.3544,6.01724 c 0,0 -4.17862,6.06102 -7.3544,7.58063 -3.63395,1.73884 -12.03447,1.11093 -12.03447,1.11093 0,0 13.55094,9.97966 40.7936,-1.03889 4.53113,-1.83266 1.99564,-10.99558 1.99564,-10.99558 l -1.33716,-4.68007 z"
             id="path3083"
             style="fill:#333333;stroke:none" />
          <path
             d="m 925.31732,366.39718 -18.7203,-24.73753 -50.14364,-50.81222 -105.63593,-103.63019 -29.41761,-26.0747 -12.03447,-2.00574 0,12.03447 -18.05171,4.01149 -12.70306,-1.33716 -13.37163,-4.68007 120.93116,93.00491 80.98056,62.77466 26.74328,21.39462 30.08618,24.06895 z"
             id="path3061"
             style="fill:url(#linearGradient3678);fill-opacity:1;stroke:none" />
          <path
             d="m 667.91329,172.50843 75.54976,54.15514 180.5171,143.07652 -4.01149,0 -28.74902,-14.04022 -135.05354,-92.93288 -80.89841,-56.82946 6.68582,-2.67433 5.34866,-7.3544 -5.34866,-6.68582 -21.39462,-17.38313 z"
             id="path3073"
             style="fill:url(#linearGradient3680);fill-opacity:1;stroke:none" />
          <path
             d="m 726.07992,181.86858 28.74902,26.07469 -14.7088,-12.03447 -7.3544,-2.67433 -6.01724,-5.34865 z"
             id="path3071"
             style="fill:#000000;stroke:none" />
        </g>
        <path
           d="m 479.85442,516.82929 c 6.92588,-0.0793 19.42114,7.39562 19.42114,7.39562 l 14.82181,-4.44654 c 7.0709,3.61444 13.92522,7.68447 20.62828,11.93385 11.46943,7.27099 33.02054,23.8524 33.02054,23.8524 l 11.10871,12.75898 4.2479,18.30569 8.17491,9.8099 17.98481,16.67071 c 0,0 19.40246,11.73659 27.77942,19.28362 7.69253,6.93041 20.27684,23.53153 20.27684,23.53153 l 1.95587,11.44488 10.46694,20.27683 3.59085,13.07987 -11.44487,4.56878 5.24111,15.6928 0.97793,6.86079 -16.01366,0.65707 2.61292,8.17489 c 0,0 -30.0779,-15.04218 -31.38556,-16.34982 -1.30765,-1.30765 -31.06466,-17.32776 -31.06466,-17.32776 l -28.75736,-16.01366 -9.65709,-3.17829 -15.73862,-18.12233 c 0,0 -50.22433,1.34386 -73.97148,-5.54671 -20.1286,-5.84058 -55.46721,-29.58249 -55.46721,-29.58249 0,0 -14.43586,-3.64801 -21.27005,-6.47881 -10.4703,-4.33696 -24.96782,-17.55696 -24.96782,-17.55696 l 15.72331,-6.47881 41.60804,-1.84891 48.0715,-1.8489 8.32774,-15.72334 31.44667,-7.39562 c 0,0 -15.70941,-15.76983 -24.05105,-23.11896 -9.21011,-8.11426 -28.66568,-23.10368 -28.66568,-23.10368 0,0 15.98242,-10.07375 24.96787,-10.17662 z"
           id="path3085-1"
           style="fill:#2f2d2e;fill-opacity:1;stroke:none" />
        <path
           d="m 300.43418,450.08533 c 0,0 -11.0901,51.06082 -12.01024,83.09379 l -1.17655,4.41598 0,-22.88976 -2.58238,6.32601 c 3.12958,-29.91671 15.76917,-70.94602 15.76917,-70.94602 z m 0.80572,15.93398 c 0,0 -7.45253,50.95786 -6.33715,81.58432 0.34462,9.46427 2.88872,22.74311 5.65368,34.73192 l -1.17661,2.50596 c -0.14561,-0.48891 -0.28223,-1.00225 -0.42784,-1.49746 l -0.25974,-9.13757 -1.39052,3.39221 c -3.49328,-12.59615 -6.55563,-26.25376 -6.83023,-36.22938 -0.79467,-28.87034 10.76841,-75.35 10.76841,-75.35 z m 6.46351,10.52299 c 0,0 -7.43724,48.92569 -6.32185,75.88988 0.57199,13.82884 7.18546,36.88038 10.81839,48.62163 -0.1531,0.0469 -0.31759,0.13159 -0.50423,0.24448 -2.26357,-5.82985 -5.50928,-14.58455 -8.38886,-23.89824 l -0.0303,-0.90154 -0.1375,0.30561 c -9.47735,-36.58737 -1.05583,-69.14392 4.56436,-100.26182 z m 5.65553,17.54354 c 0,0 -5.12183,46.62956 -4.12336,71.94573 0.29334,7.43786 2.3601,17.71628 4.69101,27.22933 l -0.35143,4.56879 c -3.93305,-12.05814 -8.00981,-26.79747 -8.31243,-36.94755 -0.7114,-23.86454 8.09621,-66.7963 8.09621,-66.7963 z m 4.50119,11.7477 c 0,0 -2.02843,46.28949 2.16328,71.27618 1.34544,8.02012 5.23874,19.14912 9.09175,28.94072 l -5.5773,-10.92535 0.48897,3.42277 c -3.92396,-9.10728 -7.42472,-18.67302 -8.58748,-26.03748 -3.72338,-23.58301 2.42078,-66.67684 2.42078,-66.67684 z m 5.6259,16.15397 c 0,0 0.41748,37.65754 3.79551,57.71985 0.75413,4.47918 2.51583,10.16556 4.55345,15.86086 l -1.43629,-2.73516 0.32086,4.56878 c -3.24698,-7.45613 -6.17809,-15.34839 -7.13588,-21.39229 -3.00055,-18.93527 -0.0976,-54.02204 -0.0976,-54.02204 z m -35.12321,16.31048 c 0.009,0.96844 0.0279,1.90941 0.0611,2.82684 0.29264,8.03617 2.17771,18.83162 4.43126,29.24632 l -1.57384,2.41427 c -1.29341,-4.58134 -2.54849,-9.33753 -3.63674,-14.02723 z m 4.72156,33.09693 c 0.79031,3.60505 1.60987,7.14081 2.42958,10.49751 l -0.88626,2.15451 c -0.58637,-1.87783 -1.1744,-3.84165 -1.7725,-5.85232 z m 11.00175,25.24291 c 1.05641,4.05373 1.90267,7.1823 2.61294,9.71821 -0.10503,0.11615 -0.15002,0.16974 -0.24448,0.27505 -0.63576,-1.80754 -1.32207,-3.76444 -2.23091,-6.47881 z m 9.01537,7.27338 c 0.11335,0.35728 0.21935,0.6609 0.32086,0.97793 -0.0225,0.19172 -0.0496,0.3765 -0.0764,0.56537 -0.0883,-0.21905 -0.2085,-0.52147 -0.30561,-0.76401 z"
           id="path3085-3"
           style="opacity:0.7964;fill:#cccccc;fill-opacity:1;stroke:none" />
        <path
           d="m 420.67888,502.03292 c -8.3561,-1.87446 -20.55098,-6.90834 -27.73957,-8.32188 -17.54076,-3.44915 -46.23269,0 -46.23269,0 0,0 22.22144,-17.10569 36.98618,-16.64375 21.0795,0.6595 60.10242,27.73959 60.10242,27.73959 0,0 -16.17311,-1.21645 -23.11634,-2.77396 z"
           id="path3201"
           style="opacity:0.57960008;fill:#d9ceb7;fill-opacity:1;stroke:none" />
        <path
           d="m 524.24006,578.77914 51.78058,29.58891 -64.72573,-22.19168 z"
           id="path3207"
           style="fill:#000000;stroke:none" />
        <path
           d="m 494.65115,615.76528 49.93128,48.08196 -75.82154,-59.1778 z"
           id="path3209"
           style="fill:#000000;stroke:none" />
        <path
           d="m 378.02611,675.1584 9.1962,89.39721 -39.2068,185.05 c -21.2281,6.3247 -40.9541,11.8983 -57.1586,15.7112 0,0 39.3171,-0.2797 56.796,-8.0304 3.3742,-1.4962 8.5097,-7.085 8.5097,-7.085 l 12.9912,9.0925 -10.0381,-16.6437 c 12.7149,-58.2792 25.4298,-112.5148 38.1447,-180.10234 0,0 3.714,-7.34774 2.9531,-11.10013 -0.7527,-3.71224 -4.1317,-9.92153 -4.1317,-9.92153 l -4.7147,-65.42228 z"
           id="path3256-0"
           style="fill:#d40000;stroke:none" />
        <g
           transform="matrix(0.89285714,0,0,0.79310345,227.12683,63.43142)"
           id="g3461">
          <path
             d="m 68.077264,279.16519 a 6.6186228,6.8550024 0 1 1 -13.237246,0 6.6186228,6.8550024 0 1 1 13.237246,0 z"
             id="path3455"
             style="opacity:0.6464;fill:#550000;fill-opacity:1;stroke:none" />
          <path
             d="m 62.404159,328.33212 a 4.2548289,4.4912086 0 1 1 -8.509658,0 4.2548289,4.4912086 0 1 1 8.509658,0 z"
             transform="translate(3.3093114,-49.166913)"
             id="path3457"
             style="opacity:0.89599992;fill:#000000;fill-opacity:1;stroke:none" />
          <path
             d="m 53.42174,316.51315 a 1.4182763,1.1818969 0 1 1 -2.836553,0 1.4182763,1.1818969 0 1 1 2.836553,0 z"
             transform="translate(10.400693,-40.184496)"
             id="path3459"
             style="opacity:0.89599992;fill:#ffffff;fill-opacity:1;stroke:none" />
        </g>
      </g>
    </g>
    <g
       transform="matrix(0.7676021,0,0,0.7676021,287.20956,-344.32296)"
       id="layer1-6">
      <g
         transform="matrix(0.69071923,0,0,0.69071923,43.974674,382.16979)"
         id="g3598">
        <g
           transform="matrix(1.8426887,0.80059715,-0.80059715,1.8426887,-576.9243,-796.16734)"
           id="g3763">
          <path
             d="m 701.42857,276.6479 -9.28571,37.14285 c 0,0 3.57143,44.28571 1.42857,55 -2.14286,10.71429 -4.99999,30 -7.14285,32.85715 -2.14285,2.85714 -17.14286,20 -20.71429,21.42857 -3.57142,1.42857 -8.6092,2.36411 -13.92858,2.14285 -6.40537,-0.26643 -14.96487,-2.98413 -20.35714,-4.28571 -5.39227,-1.30158 -6.41162,-2.9693 -10.35714,-3.57143 -1.64759,-0.25144 -5.76526,-1.22451 -8.21429,0 -2.12959,1.0648 -5.71428,5.35715 -5.71428,5.35715 l 4.40498,5.41618 c 1.75898,0.87949 26.47835,4.52242 36.3093,4.94096 6.72826,0.28645 13.72649,0.40877 20,2.85714 13.1646,4.50491 9.13116,19.79289 3.81654,31.11168 0,0 -4.81488,8.263 -11.25526,20.562 -3.0329,5.79183 -11.13271,23.32632 -11.13271,23.32632 l -3.57142,11.42857 -5,35.71429 2.85714,15 22.14286,-10 c 0,0 75.49959,-117.09363 76.46792,-116.58866 3.11997,1.62699 25.50761,12.14499 37.66187,16.34308 4.75818,-5.14397 11.02211,-10.10457 13.21866,-22.5137 3.03667,-17.1553 -8.49347,-25.89265 -8.49347,-25.89265 L 751.90301,417.62469 737.14286,281.6479 715,267.36218 701.42857,276.6479 z"
             id="path3732"
             style="fill:#c5c5ab;fill-opacity:1;stroke:none" />
          <path
             d="m 691.95449,312.42544 c 1.01016,-2.0203 7.57615,-24.74873 7.57615,-24.74873 l 3.53553,-17.67767 8.08122,-30.80966 9.09138,-20.20305 c 0,0 1.6963,5.68562 1.51522,8.5863 -0.88924,14.24409 -12.6269,40.91118 -12.6269,40.91118 l 17.17259,-46.9721 4.54569,-6.56599 c 0,0 1.91836,7.058 1.51523,10.6066 -1.42578,12.55067 -13.63706,35.35534 -13.63706,35.35534 l -6.06092,12.12183 c 0,0 13.62177,-31.67806 23.73859,-45.45686 1.97278,-2.68687 7.07106,-7.07107 7.07106,-7.07107 0,0 1.15925,5.79488 0.50508,8.5863 -3.71644,15.85857 -24.24366,42.4264 -24.24366,42.4264 0,0 16.55983,-25.65121 27.27412,-36.36549 2.38095,-2.38095 8.08122,-6.06091 8.08122,-6.06091 0,0 -1.79051,7.31361 -3.53554,10.6066 -6.74835,12.73458 -17.68779,24.10686 -17.68779,24.10686 0,0 15.17138,-14.84907 24.29827,-20.03613 2.62953,-1.49444 9.05815,-4.37029 9.05815,-4.37029 0,0 -2.19782,6.21427 -6.07218,10.90616 -3.87436,4.69189 -19.1929,16.66752 -19.1929,16.66752 0,0 15.27144,-12.29501 24.50901,-13.24446 2.12631,-0.21855 6.14369,1.83731 6.14369,1.83731 l -9.94457,8.37669 2.52538,2.52538 -4.54568,8.08122 2.52538,3.53554 -4.04061,5.55584 3.03046,3.53553 -2.02031,4.04061 2.52538,3.53553 -2.0203,3.53554 1.51523,3.53553 -2.52539,3.53553 4.54569,14.14214 3.53553,19.69798 0,22.22335 -2.52538,28.78935 -4.54568,16.66752 -1.51523,4.54568 2.96654,5.48883 -10.54269,1.07716 -11.61675,-4.04061 -13.13198,-3.03045 c 0,0 6.42779,-2.93368 8.08122,-6.06092 1.65344,-3.12725 0.98171,-7.43473 0.50507,-11.11168 l -3.53553,-27.27412 c 0,0 -3.24651,-23.30009 -7.07107,-34.34518 l -7.07107,-16.66752 3.53554,-15.15229 c 1.14337,-11.44388 1.11634,-8.14208 -2.39405,-19.17755 -2.79171,-8.7762 -7.89337,-8.95151 -14.27347,-6.07626 -3.59244,9.70834 -5.56389,19.45999 -5.84005,28.14167 -0.0952,2.9934 -6.78686,9.23397 -6.78686,9.23397 z"
             id="path2954"
             style="fill:#000000;stroke:none" />
          <path
             d="m 646.49763,521.52702 -3.53553,21.2132 c 0,0 4.54925,-7.77333 5.05076,-12.12183 0.35199,-3.05203 -1.51523,-9.09137 -1.51523,-9.09137 z"
             id="path2956"
             style="fill:#000000;stroke:none" />
          <path
             d="m 642.45702,548.29606 c -1.01015,2.02031 -10.6066,44.44671 -10.10153,52.52793 0.50508,8.08122 2.02031,18.18275 2.02031,18.18275 0,0 4.04061,-9.09137 4.04061,-11.11168 0,-2.0203 3.03046,-25.75889 3.03046,-25.75889 0,0 -2.17402,24.96701 -1.01016,37.37565 0.37005,3.94538 2.52539,11.61675 2.52539,11.61675 l 4.04061,-12.62691 1.51522,-43.43656 c 0,0 0.88472,30.49178 3.53554,45.45687 0.76236,4.30385 3.53553,12.62691 3.53553,12.62691 0,0 3.57886,-10.62838 4.04061,-16.16244 1.24973,-14.97816 -3.53553,-44.95179 -3.53553,-44.95179 0,0 4.12673,33.39722 8.89712,49.71425 1.24725,4.26622 3.72979,12.9152 3.72979,12.9152 0,0 1.70598,-11.76658 1.51522,-17.67766 -0.47233,-14.63572 -6.56599,-43.43656 -6.56599,-43.43656 0,0 6.03163,31.50719 12.62691,45.96194 1.51187,3.31354 6.06091,9.09137 6.06091,9.09137 0,0 1.33094,-12.84656 0.50508,-19.1929 -1.31309,-10.09053 -8.5863,-29.29442 -8.5863,-29.29442 5.57228,13.9064 12.08601,23.8568 19.1929,31.31473 l -0.50507,-15.15229 -2.02031,-8.5863 4.04061,1.01015 0,-12.6269 3.03046,-1.51523 0,-7.07107 4.04061,-1.51523 0,-6.56599 3.03046,-3.03046 -0.50508,-7.57614 6.06092,-8.08122 19.69797,-29.7995 9.59645,-20.20305 4.04061,-11.11168 4.04061,-20.20305 6.59162,-5.78079 c 0,0 -9.02071,-6.76993 -14.3661,-7.30263 -3.062,-0.30515 -6.86096,-0.9269 -9.68641,0.65077 l -7.79292,4.35143 -13.63706,23.23351 c -8.36406,14.24988 -15.65129,23.96256 -24.24366,35.35534 -2.22524,2.64224 -7.57615,7.07106 -7.57615,7.07106 l -7.07107,4.04061 c 0,0 1.64011,6.36041 1.51523,9.59645 -1.74546,7.34953 -1.06174,15.13643 -7.07106,21.71828 l -7.57615,6.56599 c 0,0 -4.09325,3.34072 -6.56599,4.04061 -2.10593,0.59607 -6.56599,0 -6.56599,0 l -1.01015,-2.52538 -0.50508,-12.12183 z"
             id="path2958"
             style="fill:#000000;stroke:none" />
          <path
             d="m 608.61097,421.62293 -37.26869,13.31024 45.25483,-7.32063 -7.98614,-5.98961 z"
             id="path3737"
             style="fill:#b31b1b;fill-opacity:1;stroke:none" />
          <path
             d="m 746.70476,430.10822 66.46804,5.65685 33.94112,0 -21.2132,7.07107 -22.62742,-5.65686 -56.56854,-7.07106 z"
             id="path3739"
             style="fill:#c24848;fill-opacity:1;stroke:none" />
          <path
             d="m 743.16923,440.71482 66.46804,5.65685 33.94112,0 -21.2132,7.07107 -22.62742,-5.65686 -56.56854,-7.07106 z"
             id="path3739-7"
             style="fill:#c93636;fill-opacity:1;stroke:none" />
        </g>
        <path
           d="m 227.33483,473.94883 c 0,0 -3.86172,1.05447 -5.3033,0.35355 -1.47622,-0.71777 -2.00227,-2.74354 -1.06066,-3.53553 1.81505,-1.52663 6.36396,3.18198 6.36396,3.18198 z"
           id="path3596"
           style="fill:#000000;stroke:#000000;stroke-width:1px;stroke-linecap:butt;stroke-linejoin:miter;stroke-opacity:1" />
      </g>
    </g>
  </g>
</svg>
